<svg width="54" height="143" viewBox="0 0 54 143" fill="none" xmlns="http://www.w3.org/2000/svg">
<path d="M15.6393 105.844C24.9613 95.9345 38.1224 93.1837 45.0394 99.7072C51.9565 106.231 50.0038 119.549 40.6818 129.464C31.3598 139.373 18.1987 142.124 11.2817 135.6C4.36466 129.077 6.31731 115.759 15.6393 105.844Z" fill="url(#paint0_linear_1_2873)"/>
<path d="M40.6763 129.464C31.3543 139.373 18.1932 142.124 11.2761 135.601L15.2752 139.373C22.1922 145.897 35.3533 143.146 44.6753 133.236C53.9973 123.327 55.95 110.004 49.0329 103.48L45.0339 99.7073C51.9509 106.231 49.9982 119.549 40.6763 129.464Z" fill="url(#paint1_linear_1_2873)"/>
<path d="M37.6599 126.631C44.7392 119.105 46.2231 108.991 40.9744 104.039C35.7257 99.0879 25.732 101.175 18.6528 108.7C11.5736 116.226 10.0896 126.34 15.3383 131.291C20.587 136.243 30.5807 134.156 37.6599 126.631Z" fill="url(#paint2_linear_1_2873)"/>
<path d="M21.122 128.757L22.1645 126.276L19.4176 126.337C18.8053 126.348 18.3364 126.194 18 125.868C17.6635 125.542 17.4815 125.094 17.4539 124.525C17.4263 123.957 17.5532 123.338 17.8345 122.664L18.5019 121.073L21.7619 121.001L21.1441 122.471L23.7642 122.415L25.1101 119.206L22.3852 119.267C21.7894 119.278 21.3206 119.129 20.9841 118.808C20.6476 118.488 20.4601 118.046 20.4215 117.477C20.3829 116.914 20.5208 116.262 20.8241 115.538L22.33 111.948C22.6279 111.241 23.0305 110.6 23.538 110.031C24.0455 109.462 24.6026 109.004 25.2204 108.667C25.8326 108.33 26.4449 108.153 27.0572 108.137L29.8041 108.076L30.8467 105.596L34.1066 105.524L33.0641 108.004L35.789 107.943C36.4013 107.932 36.8756 108.081 37.2121 108.402C37.5486 108.722 37.7361 109.158 37.7692 109.716C37.8023 110.274 37.6699 110.909 37.3721 111.616L36.6936 113.235L33.4337 113.307L34.0625 111.815L31.4424 111.871L30.0193 115.262L32.7442 115.201C33.3564 115.19 33.8253 115.345 34.1618 115.671C34.4927 115.997 34.6803 116.433 34.7244 116.975C34.763 117.516 34.6472 118.107 34.3824 118.748L32.8765 122.338C32.5952 123.012 32.1926 123.642 31.6741 124.222C31.1556 124.802 30.5874 125.266 29.9696 125.614C29.3518 125.962 28.7451 126.138 28.1494 126.155L25.4245 126.216L24.3819 128.696L21.122 128.768V128.757ZM26.7373 115.328L28.1604 111.937L25.5403 111.992L24.1172 115.384L26.7373 115.328ZM27.0462 122.338L29.6662 122.283L31.0121 119.074L28.3921 119.129L27.0462 122.338Z" fill="url(#paint3_linear_1_2873)"/>
<path d="M14.4762 75.6063C23.7982 65.6968 36.9593 62.9459 43.8763 69.4695C50.7934 75.993 48.8407 89.3107 39.5187 99.2258C30.1967 109.135 17.0356 111.886 10.1186 105.363C3.20157 98.8392 5.15422 85.5214 14.4762 75.6063Z" fill="url(#paint4_linear_1_2873)"/>
<path d="M39.5132 99.2258C30.1912 109.135 17.0301 111.886 10.113 105.363L14.1121 109.135C21.0291 115.659 34.1903 112.908 43.5122 102.999C52.8342 93.089 54.7869 79.7657 47.8699 73.2422L43.8708 69.4695C50.7878 75.993 48.8352 89.3107 39.5132 99.2258Z" fill="url(#paint5_linear_1_2873)"/>
<path d="M36.4969 96.3928C43.5761 88.8673 45.06 78.7528 39.8113 73.8015C34.5626 68.8502 24.5689 70.9369 17.4897 78.4624C10.4105 85.9879 8.92654 96.1024 14.1752 101.054C19.4239 106.005 29.4176 103.918 36.4969 96.3928Z" fill="url(#paint6_linear_1_2873)"/>
<path d="M19.9589 98.5187L21.0014 96.0386L18.2545 96.0993C17.6422 96.1104 17.1734 95.9557 16.8369 95.6298C16.5004 95.3039 16.3184 94.8565 16.2908 94.2875C16.2632 93.7186 16.3901 93.0999 16.6714 92.426L17.3388 90.8352L20.5988 90.7634L19.981 92.2327L22.6011 92.1775L23.947 88.9682L21.2221 89.0289C20.6264 89.04 20.1575 88.8909 19.821 88.5705C19.4846 88.2501 19.297 87.8082 19.2584 87.2393C19.2198 86.6758 19.3577 86.024 19.6611 85.3004L21.1669 81.71C21.4648 81.003 21.8674 80.3622 22.3749 79.7933C22.8824 79.2243 23.4395 78.7658 24.0573 78.4289C24.6696 78.0919 25.2818 77.9152 25.8941 77.8986L28.6411 77.8379L29.6836 75.3577L32.9435 75.2859L31.901 77.7661L34.6259 77.7053C35.2382 77.6942 35.7125 77.8434 36.049 78.1638C36.3855 78.4841 36.573 78.9205 36.6061 79.4784C36.6392 80.0363 36.5068 80.6715 36.209 81.3786L35.5305 82.997L32.2706 83.0688L32.8994 81.5774L30.2793 81.6327L28.8562 85.0242L31.5811 84.9635C32.1933 84.9524 32.6622 85.1071 32.9987 85.433C33.3296 85.7589 33.5172 86.1953 33.5613 86.7366C33.5999 87.2779 33.4841 87.869 33.2193 88.5097L31.7135 92.1001C31.4321 92.774 31.0295 93.4037 30.511 93.9837C29.9925 94.5637 29.4243 95.0277 28.8065 95.3757C28.1888 95.7237 27.582 95.9005 26.9863 95.917L24.2614 95.9778L23.2189 98.458L19.9589 98.5298V98.5187ZM25.5742 85.0905L26.9973 81.699L24.3772 81.7542L22.9541 85.1458L25.5742 85.0905ZM25.8831 92.1001L28.5032 92.0449L29.8491 88.8356L27.229 88.8909L25.8831 92.1001Z" fill="url(#paint7_linear_1_2873)"/>
<path d="M12.1503 43.0425C21.4723 33.1329 34.6334 30.3821 41.5504 36.9056C48.4674 43.4291 46.5148 56.7469 37.1928 66.662C27.8708 76.5716 14.7097 79.3224 7.79267 72.7989C0.875642 66.2753 2.8283 52.9576 12.1503 43.0425Z" fill="url(#paint8_linear_1_2873)"/>
<path d="M37.1872 66.662C27.8652 76.5716 14.7041 79.3224 7.78711 72.7989L11.7862 76.5716C18.7032 83.0951 31.8643 80.3443 41.1863 70.4347C50.5083 60.5251 52.461 47.2019 45.5439 40.6784L41.5449 36.9056C48.4619 43.4292 46.5092 56.7469 37.1872 66.662Z" fill="url(#paint9_linear_1_2873)"/>
<path d="M34.1709 63.8289C41.2501 56.3035 42.7341 46.189 37.4854 41.2377C32.2367 36.2863 22.243 38.3731 15.1638 45.8986C8.08454 53.424 6.60061 63.5385 11.8493 68.4899C17.098 73.4412 27.0917 71.3544 34.1709 63.8289Z" fill="url(#paint10_linear_1_2873)"/>
<path d="M17.633 65.9549L18.6755 63.4747L15.9286 63.5355C15.3163 63.5465 14.8474 63.3919 14.511 63.066C14.1745 62.7401 13.9925 62.2926 13.9649 61.7237C13.9373 61.1547 14.0642 60.5361 14.3455 59.8622L15.0129 58.2714L18.2728 58.1996L17.6551 59.6689L20.2751 59.6136L21.621 56.4044L18.8962 56.4651C18.3004 56.4762 17.8316 56.327 17.4951 56.0066C17.1586 55.6863 16.9711 55.2444 16.9325 54.6754C16.8939 54.112 17.0318 53.4602 17.3351 52.7366L18.841 49.1462C19.1389 48.4391 19.5415 47.7984 20.049 47.2294C20.5565 46.6605 21.1136 46.202 21.7314 45.8651C22.3436 45.5281 22.9559 45.3514 23.5682 45.3348L26.3151 45.274L27.3577 42.7939L30.6176 42.722L29.5751 45.2022L32.3 45.1414C32.9122 45.1304 33.3866 45.2795 33.7231 45.5999C34.0596 45.9203 34.2471 46.3567 34.2802 46.9146C34.3133 47.4725 34.1809 48.1077 33.883 48.8147L33.2046 50.4332L29.9446 50.505L30.5735 49.0136L27.9534 49.0688L26.5303 52.4604L29.2551 52.3996C29.8674 52.3886 30.3363 52.5432 30.6728 52.8691C31.0037 53.195 31.1913 53.6314 31.2354 54.1728C31.274 54.7141 31.1582 55.3051 30.8934 55.9459L29.3875 59.5363C29.1062 60.2102 28.7035 60.8399 28.185 61.4199C27.6665 61.9999 27.0984 62.4639 26.4806 62.8119C25.8628 63.1599 25.2561 63.3366 24.6603 63.3532L21.9355 63.414L20.8929 65.8941L17.633 65.9659V65.9549ZM23.2483 52.5267L24.6714 49.1351L22.0513 49.1904L20.6282 52.5819L23.2483 52.5267ZM23.5571 59.5363L26.1772 59.4811L27.5231 56.2718L24.903 56.327L23.5571 59.5363Z" fill="url(#paint11_linear_1_2873)"/>
<path d="M9.82436 11.6417C19.1464 1.73215 32.3075 -1.01868 39.2245 5.50485C46.1415 12.0284 44.1889 25.3461 34.8669 35.2612C25.5449 45.1708 12.3838 47.9216 5.46674 41.3981C-1.45029 34.8746 0.502369 21.5568 9.82436 11.6417Z" fill="url(#paint12_linear_1_2873)"/>
<path d="M34.8613 35.2612C25.5393 45.1708 12.3782 47.9217 5.46118 41.3981L9.46026 45.1708C16.3773 51.6944 29.5384 48.9435 38.8604 39.034C48.1824 29.1244 50.135 15.8011 43.218 9.2776L39.2189 5.50488C46.136 12.0284 44.1833 25.3461 34.8613 35.2612Z" fill="url(#paint13_linear_1_2873)"/>
<path d="M31.845 32.4282C38.9242 24.9027 40.4082 14.7882 35.1595 9.83689C29.9108 4.88555 19.917 6.97231 12.8378 14.4978C5.75861 22.0233 4.27468 32.1378 9.52337 37.0891C14.772 42.0404 24.7658 39.9537 31.845 32.4282Z" fill="url(#paint14_linear_1_2873)"/>
<path d="M15.3071 34.5541L16.3496 32.074L13.6026 32.1347C12.9904 32.1458 12.5215 31.9911 12.185 31.6652C11.8486 31.3393 11.6665 30.8919 11.6389 30.3229C11.6114 29.754 11.7382 29.1353 12.0196 28.4614L12.687 26.8706L15.9469 26.7988L15.3291 28.2681L17.9492 28.2129L19.2951 25.0036L16.5702 25.0643C15.9745 25.0754 15.5056 24.9263 15.1692 24.6059C14.8327 24.2855 14.6452 23.8436 14.6065 23.2747C14.5679 22.7112 14.7058 22.0594 15.0092 21.3358L16.5151 17.7454C16.8129 17.0384 17.2156 16.3976 17.7231 15.8287C18.2305 15.2597 18.7876 14.8012 19.4054 14.4643C20.0177 14.1273 20.63 13.9506 21.2423 13.934L23.9892 13.8733L25.0317 11.3931L28.2917 11.3213L27.2491 13.8015L29.974 13.7407C30.5863 13.7296 31.0607 13.8788 31.3972 14.1992C31.7336 14.5195 31.9212 14.9559 31.9543 15.5138C31.9874 16.0717 31.855 16.7069 31.5571 17.414L30.8787 19.0324L27.6187 19.1042L28.2475 17.6128L25.6274 17.6681L24.2043 21.0596L26.9292 20.9989C27.5415 20.9878 28.0104 21.1425 28.3468 21.4684C28.6778 21.7943 28.8653 22.2307 28.9095 22.772C28.9481 23.3133 28.8322 23.9044 28.5675 24.5451L27.0616 28.1355C26.7803 28.8094 26.3776 29.4391 25.8591 30.0191C25.3406 30.5991 24.7725 31.0631 24.1547 31.4111C23.5369 31.7591 22.9301 31.9359 22.3344 31.9524L19.6095 32.0132L18.567 34.4934L15.3071 34.5652V34.5541ZM20.9223 21.1259L22.3454 17.7344L19.7254 17.7896L18.3022 21.1812L20.9223 21.1259ZM21.2312 28.1355L23.8513 28.0803L25.1972 24.871L22.5771 24.9263L21.2312 28.1355Z" fill="#4E0778"/>
<defs>
<linearGradient id="paint0_linear_1_2873" x1="10.3559" y1="154.571" x2="42.4629" y2="87.6195" gradientUnits="userSpaceOnUse">
<stop offset="0.23" stop-color="#4E0778"/>
<stop offset="0.37" stop-color="#500A79"/>
<stop offset="0.49" stop-color="#581380"/>
<stop offset="0.58" stop-color="#65238A"/>
<stop offset="0.68" stop-color="#783B99"/>
<stop offset="0.76" stop-color="#9058AC"/>
<stop offset="0.85" stop-color="#AE7DC3"/>
<stop offset="0.93" stop-color="#D1A7DE"/>
<stop offset="1" stop-color="#F7D6FC"/>
</linearGradient>
<linearGradient id="paint1_linear_1_2873" x1="-1.1334" y1="167.456" x2="87.5093" y2="66.9232" gradientUnits="userSpaceOnUse">
<stop offset="0.12" stop-color="#F0BDF5"/>
<stop offset="0.22" stop-color="#EDBAF3"/>
<stop offset="0.3" stop-color="#E6B0ED"/>
<stop offset="0.36" stop-color="#DAA1E3"/>
<stop offset="0.42" stop-color="#C88BD4"/>
<stop offset="0.48" stop-color="#B26EC2"/>
<stop offset="0.53" stop-color="#964BAB"/>
<stop offset="0.58" stop-color="#762291"/>
<stop offset="0.61" stop-color="#5E037D"/>
</linearGradient>
<linearGradient id="paint2_linear_1_2873" x1="3.66134" y1="94.5808" x2="58.6789" y2="146.934" gradientUnits="userSpaceOnUse">
<stop offset="0.23" stop-color="#4E0778"/>
<stop offset="0.4" stop-color="#6E2F91"/>
<stop offset="0.77" stop-color="#C193D1"/>
<stop offset="1" stop-color="#F7D6FC"/>
</linearGradient>
<linearGradient id="paint3_linear_1_2873" x1="155.745" y1="104.353" x2="201.224" y2="122.085" gradientUnits="userSpaceOnUse">
<stop offset="0.23" stop-color="#4E0778"/>
<stop offset="0.4" stop-color="#6E2F91"/>
<stop offset="0.77" stop-color="#C193D1"/>
<stop offset="1" stop-color="#F7D6FC"/>
</linearGradient>
<linearGradient id="paint4_linear_1_2873" x1="9.19282" y1="124.333" x2="41.2998" y2="57.3817" gradientUnits="userSpaceOnUse">
<stop offset="0.23" stop-color="#4E0778"/>
<stop offset="0.37" stop-color="#500A79"/>
<stop offset="0.49" stop-color="#581380"/>
<stop offset="0.58" stop-color="#65238A"/>
<stop offset="0.68" stop-color="#783B99"/>
<stop offset="0.76" stop-color="#9058AC"/>
<stop offset="0.85" stop-color="#AE7DC3"/>
<stop offset="0.93" stop-color="#D1A7DE"/>
<stop offset="1" stop-color="#F7D6FC"/>
</linearGradient>
<linearGradient id="paint5_linear_1_2873" x1="-2.29649" y1="137.219" x2="86.3462" y2="36.6854" gradientUnits="userSpaceOnUse">
<stop offset="0.12" stop-color="#F0BDF5"/>
<stop offset="0.22" stop-color="#EDBAF3"/>
<stop offset="0.3" stop-color="#E6B0ED"/>
<stop offset="0.36" stop-color="#DAA1E3"/>
<stop offset="0.42" stop-color="#C88BD4"/>
<stop offset="0.48" stop-color="#B26EC2"/>
<stop offset="0.53" stop-color="#964BAB"/>
<stop offset="0.58" stop-color="#762291"/>
<stop offset="0.61" stop-color="#5E037D"/>
</linearGradient>
<linearGradient id="paint6_linear_1_2873" x1="2.49825" y1="64.343" x2="57.5159" y2="116.697" gradientUnits="userSpaceOnUse">
<stop offset="0.23" stop-color="#4E0778"/>
<stop offset="0.4" stop-color="#6E2F91"/>
<stop offset="0.77" stop-color="#C193D1"/>
<stop offset="1" stop-color="#F7D6FC"/>
</linearGradient>
<linearGradient id="paint7_linear_1_2873" x1="154.582" y1="74.1149" x2="200.061" y2="91.8469" gradientUnits="userSpaceOnUse">
<stop offset="0.23" stop-color="#4E0778"/>
<stop offset="0.4" stop-color="#6E2F91"/>
<stop offset="0.77" stop-color="#C193D1"/>
<stop offset="1" stop-color="#F7D6FC"/>
</linearGradient>
<linearGradient id="paint8_linear_1_2873" x1="6.86689" y1="91.7693" x2="38.9738" y2="24.8179" gradientUnits="userSpaceOnUse">
<stop offset="0.23" stop-color="#4E0778"/>
<stop offset="0.37" stop-color="#500A79"/>
<stop offset="0.49" stop-color="#581380"/>
<stop offset="0.58" stop-color="#65238A"/>
<stop offset="0.68" stop-color="#783B99"/>
<stop offset="0.76" stop-color="#9058AC"/>
<stop offset="0.85" stop-color="#AE7DC3"/>
<stop offset="0.93" stop-color="#D1A7DE"/>
<stop offset="1" stop-color="#F7D6FC"/>
</linearGradient>
<linearGradient id="paint9_linear_1_2873" x1="-4.62242" y1="104.655" x2="84.0203" y2="4.12154" gradientUnits="userSpaceOnUse">
<stop offset="0.12" stop-color="#F0BDF5"/>
<stop offset="0.22" stop-color="#EDBAF3"/>
<stop offset="0.3" stop-color="#E6B0ED"/>
<stop offset="0.36" stop-color="#DAA1E3"/>
<stop offset="0.42" stop-color="#C88BD4"/>
<stop offset="0.48" stop-color="#B26EC2"/>
<stop offset="0.53" stop-color="#964BAB"/>
<stop offset="0.58" stop-color="#762291"/>
<stop offset="0.61" stop-color="#5E037D"/>
</linearGradient>
<linearGradient id="paint10_linear_1_2873" x1="0.172324" y1="31.7792" x2="55.1899" y2="84.1328" gradientUnits="userSpaceOnUse">
<stop offset="0.23" stop-color="#4E0778"/>
<stop offset="0.4" stop-color="#6E2F91"/>
<stop offset="0.77" stop-color="#C193D1"/>
<stop offset="1" stop-color="#F7D6FC"/>
</linearGradient>
<linearGradient id="paint11_linear_1_2873" x1="152.256" y1="41.551" x2="197.735" y2="59.283" gradientUnits="userSpaceOnUse">
<stop offset="0.23" stop-color="#4E0778"/>
<stop offset="0.4" stop-color="#6E2F91"/>
<stop offset="0.77" stop-color="#C193D1"/>
<stop offset="1" stop-color="#F7D6FC"/>
</linearGradient>
<linearGradient id="paint12_linear_1_2873" x1="4.54096" y1="60.3686" x2="36.6479" y2="-6.58285" gradientUnits="userSpaceOnUse">
<stop offset="0.23" stop-color="#4E0778"/>
<stop offset="0.37" stop-color="#500A79"/>
<stop offset="0.49" stop-color="#581380"/>
<stop offset="0.58" stop-color="#65238A"/>
<stop offset="0.68" stop-color="#783B99"/>
<stop offset="0.76" stop-color="#9058AC"/>
<stop offset="0.85" stop-color="#AE7DC3"/>
<stop offset="0.93" stop-color="#D1A7DE"/>
<stop offset="1" stop-color="#F7D6FC"/>
</linearGradient>
<linearGradient id="paint13_linear_1_2873" x1="-6.94834" y1="73.254" x2="81.6944" y2="-27.2792" gradientUnits="userSpaceOnUse">
<stop offset="0.12" stop-color="#F0BDF5"/>
<stop offset="0.22" stop-color="#EDBAF3"/>
<stop offset="0.3" stop-color="#E6B0ED"/>
<stop offset="0.36" stop-color="#DAA1E3"/>
<stop offset="0.42" stop-color="#C88BD4"/>
<stop offset="0.48" stop-color="#B26EC2"/>
<stop offset="0.53" stop-color="#964BAB"/>
<stop offset="0.58" stop-color="#762291"/>
<stop offset="0.61" stop-color="#5E037D"/>
</linearGradient>
<linearGradient id="paint14_linear_1_2873" x1="-2.1536" y1="0.378407" x2="52.864" y2="52.732" gradientUnits="userSpaceOnUse">
<stop offset="0.23" stop-color="#4E0778"/>
<stop offset="0.4" stop-color="#6E2F91"/>
<stop offset="0.77" stop-color="#C193D1"/>
<stop offset="1" stop-color="#F7D6FC"/>
</linearGradient>
</defs>
</svg>
