<svg width="26" height="26" viewBox="0 0 26 26" fill="none" xmlns="http://www.w3.org/2000/svg">
<path d="M12.9651 13.4232L14.6422 12.4194L12.9651 11.7891V13.4232Z" fill="#7FDEFF"/>
<path d="M12.5469 6.56396C11.3061 6.56396 10.0932 6.93343 9.06153 7.62563C8.02987 8.31783 7.2258 9.30168 6.75098 10.4528C6.27616 11.6039 6.15192 12.8705 6.39398 14.0925C6.63604 15.3145 7.23353 16.4369 8.11088 17.3179C8.98823 18.1989 10.106 18.7989 11.323 19.042C12.5399 19.285 13.8013 19.1603 14.9476 18.6835C16.0939 18.2067 17.0737 17.3993 17.763 16.3633C18.4523 15.3274 18.8203 14.1094 18.8203 12.8635C18.8184 11.1933 18.1568 9.59212 16.9807 8.41114C15.8047 7.23016 14.2101 6.56585 12.5469 6.56396V6.56396ZM15.3306 15.0553L13.1558 18.0152C13.0856 18.1107 12.994 18.1882 12.8885 18.2417C12.783 18.2951 12.6665 18.323 12.5483 18.323C12.4301 18.323 12.3136 18.2951 12.2081 18.2417C12.1026 18.1882 12.0111 18.1107 11.9408 18.0152L9.76606 15.0549C9.68691 14.9457 9.6479 14.8123 9.65568 14.6774C9.66345 14.5426 9.71753 14.4146 9.8087 14.3152C9.89987 14.2159 10.0225 14.1514 10.1557 14.1327C10.2889 14.1139 10.4245 14.1421 10.5394 14.2124L12.1353 15.2052C12.2603 15.2803 12.4033 15.32 12.5489 15.32C12.6946 15.32 12.8376 15.2803 12.9626 15.2052L14.5543 14.2124C14.6692 14.1412 14.8052 14.1123 14.939 14.1307C15.0728 14.1491 15.196 14.2136 15.2876 14.3133C15.3792 14.4129 15.4334 14.5415 15.4409 14.6768C15.4485 14.8122 15.4089 14.946 15.3289 15.0553H15.3306ZM15.8743 12.4318C15.854 12.5159 15.8172 12.5951 15.7661 12.6647C15.715 12.7344 15.6505 12.7931 15.5765 12.8375L12.8814 14.4505C12.7799 14.5111 12.6639 14.5431 12.5458 14.5431C12.4277 14.5431 12.3117 14.5111 12.2102 14.4505L9.51429 12.837C9.44038 12.7926 9.37602 12.7339 9.32497 12.6642C9.27392 12.5946 9.23719 12.5154 9.21693 12.4313C9.19702 12.3479 9.19417 12.2612 9.20855 12.1766C9.22292 12.092 9.25423 12.0112 9.30057 11.9391L11.9965 7.70418C12.0592 7.61676 12.1418 7.54557 12.2373 7.49647C12.3329 7.44737 12.4387 7.42176 12.546 7.42176C12.6533 7.42176 12.7591 7.44737 12.8547 7.49647C12.9502 7.54557 13.0328 7.61676 13.0956 7.70418L15.7923 11.9396C15.8386 12.0117 15.8698 12.0925 15.8841 12.1771C15.8984 12.2617 15.8955 12.3483 15.8755 12.4318H15.8743Z" fill="#7FDEFF"/>
<path d="M12.9651 5.74536C14.5575 5.83771 16.072 6.46824 17.2624 7.53442L18.7994 5.99104C18.6106 5.66531 18.5358 5.28551 18.5869 4.91214L13.8781 2.95215C13.6512 3.25379 13.3295 3.46958 12.9651 3.56446V5.74536Z" fill="#7FDEFF"/>
<path d="M12.5468 2.78412C13.0087 2.78412 13.3832 2.40807 13.3832 1.94418C13.3832 1.4803 13.0087 1.10425 12.5468 1.10425C12.0848 1.10425 11.7103 1.4803 11.7103 1.94418C11.7103 2.40807 12.0848 2.78412 12.5468 2.78412Z" fill="#7FDEFF"/>
<path d="M7.83137 7.53442C9.02172 6.46824 10.5362 5.83771 12.1287 5.74536V3.56446C11.7649 3.46923 11.4438 3.25348 11.2173 2.95215L6.50684 4.9092C6.55882 5.28362 6.48415 5.66472 6.2948 5.99146L7.83137 7.53442Z" fill="#7FDEFF"/>
<path d="M12.9651 9.05786V10.8927L14.5004 11.4697L12.9651 9.05786Z" fill="#7FDEFF"/>
<path d="M11.6957 15.9204L11.2223 15.6264L12.5468 17.4272L13.8713 15.626L13.4 15.92C13.1428 16.0756 12.8482 16.1579 12.5479 16.158C12.2476 16.158 11.953 16.0759 11.6957 15.9204V15.9204Z" fill="#7FDEFF"/>
<path d="M19.6354 12.4434H21.8073C21.9021 12.0782 22.117 11.7557 22.417 11.5283L20.4681 6.79739C20.0954 6.86265 19.7117 6.78791 19.3903 6.5874L17.8538 8.13037C18.9151 9.32512 19.543 10.8451 19.6354 12.4434Z" fill="#7FDEFF"/>
<path d="M12.1286 13.4232V11.7891L10.4515 12.4194L12.1286 13.4232Z" fill="#7FDEFF"/>
<path d="M23.4208 13.7033C23.8828 13.7033 24.2573 13.3273 24.2573 12.8634C24.2573 12.3995 23.8828 12.0234 23.4208 12.0234C22.9588 12.0234 22.5844 12.3995 22.5844 12.8634C22.5844 13.3273 22.9588 13.7033 23.4208 13.7033Z" fill="#7FDEFF"/>
<path d="M17.2624 18.1924C16.072 19.2586 14.5575 19.8891 12.9651 19.9814V22.1623C13.3289 22.2576 13.65 22.4733 13.8764 22.7747L18.5873 20.8176C18.5349 20.4432 18.6095 20.062 18.7989 19.7353L17.2624 18.1924Z" fill="#7FDEFF"/>
<path d="M12.1287 19.9814C10.5362 19.8891 9.02172 19.2586 7.83137 18.1924L6.2948 19.7353C6.48372 20.0612 6.55838 20.4412 6.50684 20.8147L11.2157 22.7747C11.4425 22.473 11.7643 22.2572 12.1287 22.1623V19.9814Z" fill="#7FDEFF"/>
<path d="M12.5468 24.6225C13.0087 24.6225 13.3832 24.2464 13.3832 23.7826C13.3832 23.3187 13.0087 22.9426 12.5468 22.9426C12.0848 22.9426 11.7103 23.3187 11.7103 23.7826C11.7103 24.2464 12.0848 24.6225 12.5468 24.6225Z" fill="#7FDEFF"/>
<path d="M20.2359 19.7412C20.0416 19.7408 19.8532 19.8082 19.7027 19.9317C19.5523 20.0552 19.4492 20.2273 19.411 20.4186C19.3727 20.6099 19.4017 20.8086 19.493 20.9808C19.5844 21.153 19.7323 21.2881 19.9117 21.3631C20.0911 21.4381 20.2909 21.4482 20.4769 21.3919C20.6629 21.3355 20.8237 21.2161 20.9319 21.054C21.0401 20.892 21.089 20.6972 21.0702 20.503C21.0514 20.3088 20.9662 20.1271 20.8289 19.989C20.6717 19.8309 20.4584 19.7418 20.2359 19.7412V19.7412Z" fill="#7FDEFF"/>
<path d="M21.8073 13.2834H19.6354C19.5434 14.8825 18.9155 16.4033 17.8538 17.5986L19.3907 19.142C19.7152 18.9526 20.0934 18.8776 20.4652 18.9287L22.417 14.2002C22.1166 13.9724 21.9018 13.6493 21.8073 13.2834V13.2834Z" fill="#7FDEFF"/>
<path d="M20.8302 5.73662C20.9472 5.61859 21.0267 5.46839 21.0587 5.30499C21.0907 5.14159 21.0737 4.97233 21.0099 4.81863C20.9461 4.66492 20.8383 4.53365 20.7002 4.44144C20.5622 4.34922 20.3999 4.30019 20.2341 4.30054C20.0683 4.30089 19.9063 4.35061 19.7686 4.44342C19.6309 4.53622 19.5237 4.66794 19.4605 4.82192C19.3974 4.9759 19.3811 5.14522 19.4138 5.30848C19.4465 5.47175 19.5266 5.62161 19.6441 5.73914C19.722 5.81744 19.8145 5.87952 19.9164 5.9218C20.0183 5.96407 20.1274 5.98572 20.2377 5.98548C20.3479 5.98525 20.457 5.96314 20.5587 5.92043C20.6603 5.87772 20.7526 5.81525 20.8302 5.73662V5.73662Z" fill="#7FDEFF"/>
<path d="M4.85772 19.7454C4.66423 19.7463 4.47705 19.8146 4.32805 19.9385C4.17906 20.0625 4.07747 20.2345 4.0406 20.4252C4.00373 20.616 4.03385 20.8136 4.12583 20.9846C4.21781 21.1555 4.36597 21.2891 4.54506 21.3627C4.72415 21.4363 4.9231 21.4452 5.10801 21.388C5.29293 21.3308 5.45237 21.211 5.55919 21.049C5.666 20.8869 5.71357 20.6928 5.69381 20.4995C5.67404 20.3062 5.58815 20.1258 5.45077 19.9889C5.29271 19.8325 5.07962 19.745 4.85772 19.7454V19.7454Z" fill="#7FDEFF"/>
<path d="M3.28641 12.4435H5.45827C5.55024 10.8445 6.17815 9.32366 7.23992 8.12835L5.70293 6.58496C5.44661 6.73718 5.15464 6.81833 4.85686 6.82014C4.78033 6.81812 4.70403 6.81082 4.6285 6.7983L2.67664 11.5267C2.97703 11.7545 3.19192 12.0776 3.28641 12.4435V12.4435Z" fill="#7FDEFF"/>
<path d="M5.45827 13.2834H3.28641C3.19158 13.6487 2.97672 13.9712 2.67664 14.1986L4.62558 18.9291C4.99835 18.8766 5.37789 18.9513 5.70335 19.1412L7.23992 17.5986C6.17815 16.4033 5.55024 14.8825 5.45827 13.2834V13.2834Z" fill="#7FDEFF"/>
<path d="M1.67288 13.7033C2.13484 13.7033 2.50934 13.3273 2.50934 12.8634C2.50934 12.3995 2.13484 12.0234 1.67288 12.0234C1.21092 12.0234 0.836426 12.3995 0.836426 12.8634C0.836426 13.3273 1.21092 13.7033 1.67288 13.7033Z" fill="#7FDEFF"/>
<path d="M5.452 5.73649C5.60895 5.57822 5.69686 5.36382 5.69639 5.14045C5.69592 4.91709 5.60711 4.70307 5.44949 4.54546C5.29187 4.38786 5.07836 4.29958 4.85592 4.30005C4.63349 4.30052 4.42035 4.38971 4.26339 4.54798C4.18541 4.6262 4.12359 4.71913 4.08149 4.82141C4.03939 4.9237 4.01784 5.03334 4.01807 5.14402C4.0183 5.2547 4.04032 5.36424 4.08285 5.46635C4.12538 5.56846 4.18759 5.66112 4.2659 5.73901C4.42435 5.89503 4.63755 5.98221 4.85946 5.98174C5.08138 5.98127 5.2942 5.89318 5.452 5.73649V5.73649Z" fill="#7FDEFF"/>
</svg>
